inDegrees=no
num_controls=7
num_derivatives=13
num_iterations=87
num_multipliers=7
num_parameters=0
num_slacks=7
num_states=26
objective=0.304481
objective_accelerations=0.047907
objective_balance=0.002269
objective_effort=0.039607
objective_height=0.213406
objective_ligament=0.001291
solver_duration=893.522179
status=Solve_Succeeded
success=true
DataType=double
version=3
OpenSimVersion=4.5
endheader
time	/jointset/ground_pelvis/pelvis_tilt/value	/jointset/ground_pelvis/pelvis_tx/value	/jointset/ground_pelvis/pelvis_ty/value	/jointset/hip_r/hip_flexion_r/value	/jointset/hip_r/hip_adduction_r/value	/jointset/hip_r/hip_rotation_r/value	/jointset/back/lumbar_extension/value	/jointset/patellofemoral_r/patellar_flexion_r/value	/jointset/knee_r/knee_flexion_r/value	/jointset/knee_r/knee_adduction_r/value	/jointset/knee_r/knee_rotation_r/value	/jointset/ankle_r/ankle_angle_r/value	/jointset/subtalar_r/subtalar_angle_r/value	/jointset/ground_pelvis/pelvis_tilt/speed	/jointset/ground_pelvis/pelvis_tx/speed	/jointset/ground_pelvis/pelvis_ty/speed	/jointset/hip_r/hip_flexion_r/speed	/jointset/hip_r/hip_adduction_r/speed	/jointset/hip_r/hip_rotation_r/speed	/jointset/back/lumbar_extension/speed	/jointset/patellofemoral_r/patellar_flexion_r/speed	/jointset/knee_r/knee_flexion_r/speed	/jointset/knee_r/knee_adduction_r/speed	/jointset/knee_r/knee_rotation_r/speed	/jointset/ankle_r/ankle_angle_r/speed	/jointset/subtalar_r/subtalar_angle_r/speed	/forceset/tau_hip_flexion_r	/forceset/tau_hip_adduction_r	/forceset/tau_hip_rotation_r	/forceset/tau_knee_flexion_r	/forceset/tau_ankle_angle_r	/forceset/tau_subtalar_angle_r	/forceset/tau_lumbar_extension	lambda_cid13_p0	lambda_cid14_p0	lambda_cid14_p1	lambda_cid14_p2	lambda_cid14_p3	lambda_cid14_p4	lambda_cid14_p5	/jointset/ground_pelvis/pelvis_tilt/accel	/jointset/ground_pelvis/pelvis_tx/accel	/jointset/ground_pelvis/pelvis_ty/accel	/jointset/hip_r/hip_flexion_r/accel	/jointset/hip_r/hip_adduction_r/accel	/jointset/hip_r/hip_rotation_r/accel	/jointset/back/lumbar_extension/accel	/jointset/patellofemoral_r/patellar_flexion_r/accel	/jointset/knee_r/knee_flexion_r/accel	/jointset/knee_r/knee_adduction_r/accel	/jointset/knee_r/knee_rotation_r/accel	/jointset/ankle_r/ankle_angle_r/accel	/jointset/subtalar_r/subtalar_angle_r/accel	gamma_cid13_p0	gamma_cid14_p0	gamma_cid14_p1	gamma_cid14_p2	gamma_cid14_p3	gamma_cid14_p4	gamma_cid14_p5
1	-0.2872599291286729	-0.02373475847252738	0.363609819968949	2.181481398518722	-0.2324849923112182	0.1250716155338564	-0.7853331943702726	2.181660237785086	2.181660237785071	-0.1745320585020237	0.1745328222888954	0.4259383621703567	0.1761504463417592	0.03778909876445696	-0.005747443860648819	0.0101195504286902	-0.05257587054966892	-9.091009346731907e-05	-0.00631073341783257	0.0003194510391482791	-0.01870857787912667	-0.01870857787912533	0.0008075528806591665	-0.0007716815107989305	-0.005169390727464603	-0.002648226037913699	-0.3790586422562106	-0.01543421015077167	-0.01828797213448542	-0.511560689391197	-0.009045218453737656	-0.02069731208559681	0.3815711521249519	-0.02638293721071438	-60.67495262705665	-24.81789167842962	10.32429387209724	28.49796847248267	-809.0850500956792	68.24373085563241	-0.5502717958180057	-0.6362346445436968	2.653253553451192	-6.919432031534928	-0.4252084326691778	-2.550569838208603	0.03479172874890448	-6.635844777256525	-6.635844777255944	0.1499928380545051	-0.2098981501751888	0.4963435575066746	-0.4731416785018597	1.644544820666871e-09	-8.800846650870004e-09	1.150474045697515e-08	4.066515698694374e-09	3.135971259742286e-08	4.191114055424567e-09	1.961112308753959e-08
1.01	-0.2869091788549813	-0.02382399329437074	0.3638443388046878	2.180607000876148	-0.2325060902548392	0.1248843973893313	-0.7853285605157154	2.181140162982974	2.181140162982969	-0.1745139944454879	0.1745136553021673	0.4259127165246023	0.1761028400385294	0.03241240220223281	-0.01208997361247482	0.03684625747296034	-0.1225267563778597	-0.004112464515928544	-0.03099778529993003	0.0005743226207434358	-0.08542191585274442	-0.08542191585274136	0.002939347195599567	-0.003032424053924445	0.0001001725384583469	-0.006816042985213891	-0.3800163325323667	-0.01534451550091813	-0.0182420605419328	-0.5132293301356609	-0.008359160601314008	-0.02079858856326275	0.3826823783617945	-0.02633359447539601	-60.58942076909231	-24.87643135206519	10.36735922881769	28.26351015799494	-811.0822334946037	68.43680754097163	-0.5236505686032605	-0.6318152426348334	2.691686837418739	-7.066381229318754	-0.3881950047029578	-2.407511260086036	0.01588528512020821	-6.706408300993711	-6.706408300993811	0.2648912871007971	-0.2297680221902661	0.5512448922168403	-0.3800502016612572	2.920710890248466e-12	-2.261137999265881e-08	9.714011072209509e-09	5.615582662956379e-09	7.388788482778303e-08	7.191879752962407e-09	-3.031740009399562e-08
1.02	-0.2866106519433506	-0.02397636403415882	0.36434798622237	2.179026401501116	-0.2325669169542196	0.1244543610466109	-0.7853223678628894	2.17994948880241	2.179949488802413	-0.1744705887339799	0.1744727597468461	0.4259415629477221	0.1760152658660634	0.0273444263528689	-0.01837462744959348	0.06394526681739951	-0.1938162170403532	-0.008036661245126168	-0.05487437305705748	0.0006312106925603356	-0.1528284535695344	-0.152828453569533	0.005875883866018541	-0.005117395229409787	0.005729023047650762	-0.01064179988520235	-0.3809740228085243	-0.01525482085106025	-0.01819614894938999	-0.5148979708801246	-0.00767310274888942	-0.02089986504091997	0.3837936045986353	-0.02628520052740656	-60.49903674051049	-24.94255826895689	10.42126973072638	28.04607345269167	-813.0034866911774	68.54045280293691	-0.4885276532459414	-0.624659461602214	2.727714013484992	-7.187146998395475	-0.4057368940164969	-2.388477013214708	-0.004804973206741834	-6.774484725890925	-6.774484725891019	0.3109413091501412	-0.1747438766471285	0.568201006160597	-0.4047296690395683	1.121741031676522e-08	-1.193510689170737e-08	5.027344769045214e-08	7.727881118125102e-08	4.057304173153302e-08	-1.994559077187425e-08	1.736205186398267e-07
1.03	-0.2863612353461688	-0.02419116181909325	0.3651243443313402	2.176726963939724	-0.2326664222702804	0.1237901268731801	-0.7853163279264841	2.17808154329161	2.178081543291612	-0.1743935360352075	0.174412272263629	0.4260280115409364	0.1758910193723265	0.02259716330487393	-0.02456180383719312	0.09137475254038625	-0.26622418247577	-0.0118396193930244	-0.0778326685058249	0.0005665358092896315	-0.2208486080232064	-0.220848608023207	0.009652178048310053	-0.006940060204949247	0.01157337013476869	-0.01415953680448202	-0.3817786319020229	-0.01515073569111343	-0.01806642644651641	-0.5165607306473333	-0.006653814437984315	-0.02089400705357309	0.3848373489412474	-0.0262200833708428	-60.26703624303239	-24.92748562914969	10.45095633646292	27.56784234596615	-814.7143323019391	68.74866223322907	-0.4590833187682732	-0.6122767820266803	2.757815841811798	-7.290553628878036	-0.363837962691236	-2.22854048378865	-0.008834862758392417	-6.828979301321649	-6.828979301321926	0.4285828559521228	-0.1799778346627952	0.5944489185264499	-0.3180684481994457	2.256308475647344e-08	-1.008968418891094e-09	9.126502885974612e-08	1.496574903276484e-07	6.484290315623283e-09	-4.739059431938838e-08	3.80148911270746e-07
